<?xml version="1.0" standalone="no"?>
<!DOCTYPE svg PUBLIC "-//W3C//DTD SVG 20010904//EN"
 "http://www.w3.org/TR/2001/REC-SVG-20010904/DTD/svg10.dtd">
<svg version="1.0" xmlns="http://www.w3.org/2000/svg"
 width="1024.000000pt" height="1024.000000pt" viewBox="0 0 1024.000000 1024.000000"
 preserveAspectRatio="xMidYMid meet">

<g transform="translate(0.000000,1024.000000) scale(0.100000,-0.100000)"
fill="#000000" stroke="none">
<path d="M3815 8436 c-187 -37 -359 -153 -463 -315 -130 -200 -146 -469 -41
-699 78 -174 241 -333 478 -468 42 -24 72 -44 66 -44 -5 0 -93 34 -195 75
-213 86 -435 163 -599 206 -128 35 -334 80 -339 74 -2 -1 37 -73 86 -159 l90
-156 -99 -86 c-54 -48 -99 -88 -99 -88 0 -1 132 0 292 2 615 7 1135 -32 1434
-108 64 -16 120 -27 125 -25 4 3 11 20 14 38 4 17 16 50 26 71 11 22 16 43 12
47 -5 3 -80 51 -168 104 -327 201 -458 297 -600 440 -144 145 -204 257 -205
380 0 175 170 312 360 289 157 -19 357 -147 511 -327 131 -154 287 -424 370
-639 l34 -88 92 3 c51 1 93 5 93 9 0 27 -46 235 -76 342 -70 252 -183 503
-302 671 -151 212 -381 386 -581 440 -81 22 -233 27 -316 11z"/>
<path d="M6138 8440 c-72 -12 -157 -39 -213 -67 -324 -165 -585 -560 -721
-1097 -28 -109 -64 -280 -64 -302 0 -11 20 -14 94 -14 l93 0 32 90 c18 49 63
151 101 227 182 368 423 631 656 715 78 28 207 30 282 4 69 -23 144 -84 179
-143 25 -43 28 -58 28 -134 0 -81 -2 -90 -43 -172 -33 -66 -63 -108 -129 -177
-142 -149 -277 -249 -618 -458 -93 -57 -174 -107 -179 -112 -4 -4 1 -33 13
-64 12 -31 21 -66 21 -76 0 -24 1 -24 65 -5 258 79 641 113 1383 124 l413 6
-99 83 -100 83 70 122 c38 67 79 139 90 160 l19 39 -33 -7 c-279 -57 -532
-135 -887 -275 -126 -49 -233 -90 -238 -90 -4 0 35 24 88 53 368 203 553 463
552 777 0 129 -18 204 -79 328 -116 236 -381 395 -652 391 -42 -1 -98 -5 -124
-9z"/>
<path d="M4863 6809 c-66 -8 -105 -37 -134 -97 -23 -47 -24 -49 -26 -522 -4
-527 0 -569 47 -612 l30 -28 336 0 c270 0 340 3 363 14 56 29 56 28 59 560 3
557 1 577 -58 636 -24 24 -52 41 -72 44 -49 9 -486 12 -545 5z"/>
<path d="M2455 6598 c-51 -18 -96 -59 -117 -104 -17 -41 -18 -67 -16 -432 l3
-389 29 -41 c16 -23 46 -50 70 -62 42 -20 57 -20 1069 -20 l1027 0 0 485 0
484 -65 20 c-92 29 -225 50 -373 61 -179 13 -1589 11 -1627 -2z"/>
<path d="M6095 6599 c-118 -12 -243 -35 -322 -61 l-63 -21 0 -483 0 -484 1033
0 1034 0 44 23 c33 18 51 37 72 77 l28 54 -3 387 -3 387 -30 43 c-16 23 -48
52 -70 63 -40 21 -49 21 -835 22 -437 1 -835 -2 -885 -7z"/>
<path d="M2702 3983 l3 -1358 22 -66 c52 -153 182 -263 339 -289 34 -6 357
-10 757 -10 l697 0 0 1540 0 1540 -910 0 -911 0 3 -1357z"/>
<path d="M4720 3800 l0 -1540 400 0 400 0 0 1540 0 1540 -400 0 -400 0 0
-1540z"/>
<path d="M5710 3800 l0 -1540 698 0 c424 0 722 4 762 10 151 24 273 122 336
270 18 44 19 89 22 1423 l2 1377 -910 0 -910 0 0 -1540z"/>
</g>
</svg>
